<svg xmlns="http://www.w3.org/2000/svg" viewBox="0 0 512 512">
  <defs>
    <radialGradient id="bg" cx="50%" cy="38%" r="70%">
      <stop offset="0" stop-color="#0b3038"/>
      <stop offset="1" stop-color="#02080b"/>
    </radialGradient>
  </defs>
  <rect width="512" height="512" rx="116" fill="url(#bg)"/>
  <circle cx="256" cy="256" r="166" fill="none" stroke="#6de4ef" stroke-opacity=".22" stroke-width="4"/>
  <circle cx="256" cy="256" r="104" fill="none" stroke="#6de4ef" stroke-opacity=".18" stroke-width="4"/>
  <path d="M256 84v28M256 400v28M84 256h28M400 256h28" stroke="#78f0ba" stroke-width="8" stroke-linecap="round"/>
  <path d="M256 166l24 68 82 28-7 22-78-10-7 62 28 22-5 16-37-12-37 12-5-16 28-22-7-62-78 10-7-22 82-28 24-68z" fill="#eef8f8"/>
  <circle cx="256" cy="256" r="12" fill="#6de4ef"/>
</svg>
